<?xml version="1.0" encoding="utf-8"?>
<!-- Generator: Adobe Illustrator 16.0.0, SVG Export Plug-In . SVG Version: 6.00 Build 0)  -->
<!DOCTYPE svg PUBLIC "-//W3C//DTD SVG 1.1//EN" "http://www.w3.org/Graphics/SVG/1.1/DTD/svg11.dtd">
<svg version="1.1" id="Layer_1" xmlns="http://www.w3.org/2000/svg" xmlns:xlink="http://www.w3.org/1999/xlink" x="0px" y="0px"
	 width="100px" height="100px" viewBox="0 0 100 100" enable-background="new 0 0 100 100" xml:space="preserve">
<g>
	<path d="M33.58,34.294c-16.052,0-29.104,13.056-29.104,29.103c0,16.049,13.053,29.104,29.104,29.104
		c16.043,0,29.097-13.056,29.097-29.104C62.677,47.35,49.623,34.294,33.58,34.294z M15.197,78.424
		c-3.005-3.513-4.862-7.708-5.41-12.214h7.161c0.194,3.567,0.72,6.951,1.582,10.07C17.351,76.913,16.233,77.633,15.197,78.424z
		 M16.948,60.585H9.787c0.548-4.507,2.4-8.696,5.404-12.201c1.018,0.777,2.137,1.492,3.339,2.139
		C17.668,53.64,17.134,57.018,16.948,60.585z M19.344,82.271c0.366-0.233,0.729-0.458,1.103-0.665
		c0.319,0.704,0.655,1.378,1.006,2.026C20.721,83.216,20.017,82.761,19.344,82.271z M20.451,45.18
		c-0.396-0.215-0.759-0.434-1.107-0.656c0.673-0.486,1.377-0.938,2.108-1.355C21.102,43.806,20.766,44.48,20.451,45.18z
		 M31.013,86.217c-2.137-1.048-4.114-3.36-5.705-6.66c1.823-0.545,3.736-0.91,5.705-1.078V86.217z M31.013,72.84
		c-2.669,0.188-5.225,0.666-7.631,1.427c-0.69-2.524-1.129-5.23-1.31-8.057h8.94V72.84z M31.013,60.585h-8.94
		c0.181-2.818,0.619-5.521,1.306-8.058c2.41,0.756,4.97,1.236,7.635,1.427V60.585z M31.013,48.315
		c-1.973-0.168-3.882-0.532-5.705-1.078c1.591-3.308,3.568-5.614,5.705-6.663V48.315z M36.142,40.578
		c2.131,1.045,4.112,3.352,5.698,6.654c-1.82,0.544-3.729,0.913-5.698,1.078V40.578z M36.142,86.217v-7.738
		c1.978,0.168,3.896,0.533,5.704,1.074C40.259,82.858,38.276,85.171,36.142,86.217z M43.771,74.272
		c-2.399-0.765-4.964-1.24-7.629-1.433v-6.63h8.94C44.902,69.036,44.465,71.742,43.771,74.272z M36.142,60.585v-6.631
		c2.674-0.186,5.229-0.667,7.629-1.425c0.694,2.526,1.132,5.232,1.312,8.056H36.142z M45.706,83.629
		c0.346-0.633,0.681-1.307,0.996-2.006c0.394,0.217,0.757,0.436,1.101,0.649C47.131,82.761,46.434,83.216,45.706,83.629z
		 M46.713,45.19c-0.324-0.705-0.657-1.384-1.007-2.022c0.728,0.417,1.425,0.869,2.106,1.355
		C47.447,44.757,47.079,44.979,46.713,45.19z M51.957,78.416c-1.021-0.786-2.137-1.503-3.335-2.143
		c0.862-3.117,1.389-6.496,1.575-10.063h7.169C56.816,70.712,54.961,74.906,51.957,78.416z M50.197,60.585
		c-0.187-3.563-0.719-6.945-1.58-10.078c1.177-0.636,2.296-1.351,3.335-2.139c3.009,3.512,4.864,7.704,5.414,12.217H50.197z"/>
	<path d="M98.23,52.025L84.637,34.018c-0.747-0.988-1.917-1.57-3.157-1.57c-1.241,0-2.411,0.582-3.155,1.572L64.737,52.025
		c-0.903,1.198-1.05,2.805-0.382,4.147c0.671,1.343,2.04,2.19,3.543,2.19h3.487c-0.631,6.457-3.048,12.391-6.75,17.289
		c-0.761,1.006-0.887,2.357-0.325,3.487c0.563,1.13,1.715,1.847,2.978,1.847h0.002c12.728,0,23.272-9.9,24.046-22.605
		c0-0.006,0.001-0.012,0.001-0.018h3.738c1.501,0,2.874-0.848,3.542-2.19S99.138,53.224,98.23,52.025z"/>
	<path d="M81.479,28.447c2.479,0,4.854,1.181,6.349,3.158l8.116,10.753c0.108-0.847,0.185-1.702,0.185-2.578
		c0-11.01-8.56-20.059-19.371-20.844c-0.544-0.039-1.044-0.317-1.363-0.76c-3.889-5.382-10.214-8.712-16.95-8.712
		c-0.482,0-0.965,0.018-1.447,0.051c-0.45,0.031-0.895-0.103-1.252-0.377c-4.081-3.133-9.05-4.832-14.257-4.832
		c-9.307,0-17.556,5.449-21.32,13.675c-0.266,0.581-0.814,0.983-1.448,1.063C8.434,20.344,0.453,29.148,0.453,39.78
		c0,3.732,0.995,7.23,2.716,10.266c5.15-11.688,16.84-19.869,30.411-19.869c12.689,0,23.721,7.166,29.312,17.653l12.24-16.22
		C76.619,29.631,78.992,28.447,81.479,28.447z"/>
</g>
</svg>
